<mxfile host="app.diagrams.net" agent="Mozilla/5.0 (Windows NT 10.0; Win64; x64; rv:137.0) Gecko/20100101 Firefox/137.0" version="26.2.14">
  <diagram name="Página-1" id="JEAQA6DNMLc6DqY-EtTn">
    <mxGraphModel dx="1426" dy="787" grid="1" gridSize="10" guides="1" tooltips="1" connect="1" arrows="1" fold="1" page="1" pageScale="1" pageWidth="827" pageHeight="1169" math="0" shadow="0">
      <root>
        <mxCell id="0" />
        <mxCell id="1" parent="0" />
        <mxCell id="1KTbV4AnDASRc_67AMs9-17" style="edgeStyle=orthogonalEdgeStyle;rounded=0;orthogonalLoop=1;jettySize=auto;html=1;entryX=0.5;entryY=0;entryDx=0;entryDy=0;" edge="1" parent="1" source="1KTbV4AnDASRc_67AMs9-1" target="1KTbV4AnDASRc_67AMs9-2">
          <mxGeometry relative="1" as="geometry" />
        </mxCell>
        <mxCell id="1KTbV4AnDASRc_67AMs9-1" value="INICIO" style="strokeWidth=2;html=1;shape=mxgraph.flowchart.start_1;whiteSpace=wrap;fillColor=light-dark(#000000,#002950);fillStyle=solid;" vertex="1" parent="1">
          <mxGeometry x="80" y="40" width="100" height="60" as="geometry" />
        </mxCell>
        <mxCell id="1KTbV4AnDASRc_67AMs9-18" style="edgeStyle=orthogonalEdgeStyle;rounded=0;orthogonalLoop=1;jettySize=auto;html=1;entryX=0.5;entryY=0;entryDx=0;entryDy=0;" edge="1" parent="1" source="1KTbV4AnDASRc_67AMs9-2" target="1KTbV4AnDASRc_67AMs9-3">
          <mxGeometry relative="1" as="geometry" />
        </mxCell>
        <mxCell id="1KTbV4AnDASRc_67AMs9-2" value="Iniciar Sesión" style="rounded=1;whiteSpace=wrap;html=1;fillColor=light-dark(#FFFFFF,#440044);" vertex="1" parent="1">
          <mxGeometry x="70" y="160" width="120" height="60" as="geometry" />
        </mxCell>
        <mxCell id="1KTbV4AnDASRc_67AMs9-19" style="edgeStyle=orthogonalEdgeStyle;rounded=0;orthogonalLoop=1;jettySize=auto;html=1;entryX=0.5;entryY=0;entryDx=0;entryDy=0;" edge="1" parent="1" source="1KTbV4AnDASRc_67AMs9-3" target="1KTbV4AnDASRc_67AMs9-7">
          <mxGeometry relative="1" as="geometry" />
        </mxCell>
        <mxCell id="1KTbV4AnDASRc_67AMs9-29" style="edgeStyle=orthogonalEdgeStyle;rounded=0;orthogonalLoop=1;jettySize=auto;html=1;entryX=0;entryY=0.5;entryDx=0;entryDy=0;dashed=1;" edge="1" parent="1" source="1KTbV4AnDASRc_67AMs9-3" target="1KTbV4AnDASRc_67AMs9-5">
          <mxGeometry relative="1" as="geometry" />
        </mxCell>
        <mxCell id="1KTbV4AnDASRc_67AMs9-3" value="&lt;div align=&quot;center&quot;&gt;&lt;font style=&quot;font-size: 10px;&quot;&gt;¿Está registrado el usuario?&lt;/font&gt;&lt;/div&gt;" style="rhombus;whiteSpace=wrap;html=1;align=center;fillColor=light-dark(#000000,#675803);" vertex="1" parent="1">
          <mxGeometry x="70" y="280" width="120" height="120" as="geometry" />
        </mxCell>
        <mxCell id="1KTbV4AnDASRc_67AMs9-23" style="edgeStyle=orthogonalEdgeStyle;rounded=0;orthogonalLoop=1;jettySize=auto;html=1;entryX=0;entryY=0.5;entryDx=0;entryDy=0;dashed=1;" edge="1" parent="1" source="1KTbV4AnDASRc_67AMs9-5" target="1KTbV4AnDASRc_67AMs9-8">
          <mxGeometry relative="1" as="geometry" />
        </mxCell>
        <mxCell id="1KTbV4AnDASRc_67AMs9-5" value="NO" style="ellipse;whiteSpace=wrap;html=1;aspect=fixed;fillStyle=solid;fillColor=light-dark(#FFFFFF,#990000);" vertex="1" parent="1">
          <mxGeometry x="240" y="310" width="60" height="60" as="geometry" />
        </mxCell>
        <mxCell id="1KTbV4AnDASRc_67AMs9-20" style="edgeStyle=orthogonalEdgeStyle;rounded=0;orthogonalLoop=1;jettySize=auto;html=1;entryX=0;entryY=0.5;entryDx=0;entryDy=0;" edge="1" parent="1" source="1KTbV4AnDASRc_67AMs9-7" target="1KTbV4AnDASRc_67AMs9-14">
          <mxGeometry relative="1" as="geometry" />
        </mxCell>
        <mxCell id="1KTbV4AnDASRc_67AMs9-7" value="SI" style="ellipse;whiteSpace=wrap;html=1;aspect=fixed;fillColor=light-dark(#FFFFFF,#009900);" vertex="1" parent="1">
          <mxGeometry x="100" y="460" width="60" height="60" as="geometry" />
        </mxCell>
        <mxCell id="1KTbV4AnDASRc_67AMs9-24" style="edgeStyle=orthogonalEdgeStyle;rounded=0;orthogonalLoop=1;jettySize=auto;html=1;entryX=0;entryY=0.5;entryDx=0;entryDy=0;dashed=1;" edge="1" parent="1" source="1KTbV4AnDASRc_67AMs9-8" target="1KTbV4AnDASRc_67AMs9-9">
          <mxGeometry relative="1" as="geometry" />
        </mxCell>
        <mxCell id="1KTbV4AnDASRc_67AMs9-8" value="Registro" style="rounded=1;whiteSpace=wrap;html=1;fillColor=light-dark(#FFFFFF,#440044);" vertex="1" parent="1">
          <mxGeometry x="370" y="310" width="120" height="60" as="geometry" />
        </mxCell>
        <mxCell id="1KTbV4AnDASRc_67AMs9-25" style="edgeStyle=orthogonalEdgeStyle;rounded=0;orthogonalLoop=1;jettySize=auto;html=1;entryX=0.5;entryY=1;entryDx=0;entryDy=0;dashed=1;" edge="1" parent="1" source="1KTbV4AnDASRc_67AMs9-9" target="1KTbV4AnDASRc_67AMs9-10">
          <mxGeometry relative="1" as="geometry" />
        </mxCell>
        <mxCell id="1KTbV4AnDASRc_67AMs9-9" value="Correo de autenticación" style="rounded=1;whiteSpace=wrap;html=1;fillColor=light-dark(#FFFFFF,#440044);" vertex="1" parent="1">
          <mxGeometry x="550" y="310" width="120" height="60" as="geometry" />
        </mxCell>
        <mxCell id="1KTbV4AnDASRc_67AMs9-26" style="edgeStyle=orthogonalEdgeStyle;rounded=0;orthogonalLoop=1;jettySize=auto;html=1;dashed=1;" edge="1" parent="1" source="1KTbV4AnDASRc_67AMs9-10" target="1KTbV4AnDASRc_67AMs9-12">
          <mxGeometry relative="1" as="geometry" />
        </mxCell>
        <mxCell id="1KTbV4AnDASRc_67AMs9-10" value="¿Se autenticó correctamente?" style="rhombus;whiteSpace=wrap;html=1;fillColor=light-dark(#000000,#675803);fillStyle=solid;" vertex="1" parent="1">
          <mxGeometry x="550" y="130" width="120" height="120" as="geometry" />
        </mxCell>
        <mxCell id="1KTbV4AnDASRc_67AMs9-27" style="edgeStyle=orthogonalEdgeStyle;rounded=0;orthogonalLoop=1;jettySize=auto;html=1;dashed=1;" edge="1" parent="1" source="1KTbV4AnDASRc_67AMs9-12" target="1KTbV4AnDASRc_67AMs9-13">
          <mxGeometry relative="1" as="geometry" />
        </mxCell>
        <mxCell id="1KTbV4AnDASRc_67AMs9-12" value="SI" style="ellipse;whiteSpace=wrap;html=1;aspect=fixed;fillColor=light-dark(#FFFFFF,#009900);" vertex="1" parent="1">
          <mxGeometry x="430" y="160" width="60" height="60" as="geometry" />
        </mxCell>
        <mxCell id="1KTbV4AnDASRc_67AMs9-28" style="edgeStyle=orthogonalEdgeStyle;rounded=0;orthogonalLoop=1;jettySize=auto;html=1;entryX=1;entryY=0.5;entryDx=0;entryDy=0;dashed=1;" edge="1" parent="1" source="1KTbV4AnDASRc_67AMs9-13" target="1KTbV4AnDASRc_67AMs9-2">
          <mxGeometry relative="1" as="geometry" />
        </mxCell>
        <mxCell id="1KTbV4AnDASRc_67AMs9-13" value="Registro exitoso" style="rounded=1;whiteSpace=wrap;html=1;fillColor=light-dark(#FFFFFF,#440044);" vertex="1" parent="1">
          <mxGeometry x="250" y="160" width="120" height="60" as="geometry" />
        </mxCell>
        <mxCell id="1KTbV4AnDASRc_67AMs9-21" style="edgeStyle=orthogonalEdgeStyle;rounded=0;orthogonalLoop=1;jettySize=auto;html=1;entryX=0;entryY=0.5;entryDx=0;entryDy=0;" edge="1" parent="1" source="1KTbV4AnDASRc_67AMs9-14" target="1KTbV4AnDASRc_67AMs9-15">
          <mxGeometry relative="1" as="geometry" />
        </mxCell>
        <mxCell id="1KTbV4AnDASRc_67AMs9-14" value="Ingresa usuario y contraseña" style="rounded=1;whiteSpace=wrap;html=1;fillColor=light-dark(#FFFFFF,#440044);" vertex="1" parent="1">
          <mxGeometry x="230" y="460" width="120" height="60" as="geometry" />
        </mxCell>
        <mxCell id="1KTbV4AnDASRc_67AMs9-15" value="Vista principal" style="rounded=1;whiteSpace=wrap;html=1;fillColor=light-dark(#FFFFFF,#440044);" vertex="1" parent="1">
          <mxGeometry x="410" y="460" width="120" height="60" as="geometry" />
        </mxCell>
        <mxCell id="1KTbV4AnDASRc_67AMs9-16" value="FIN" style="strokeWidth=2;html=1;shape=mxgraph.flowchart.terminator;whiteSpace=wrap;fillStyle=solid;fillColor=light-dark(#000000,#002950);" vertex="1" parent="1">
          <mxGeometry x="590" y="540" width="100" height="60" as="geometry" />
        </mxCell>
        <mxCell id="1KTbV4AnDASRc_67AMs9-22" style="edgeStyle=orthogonalEdgeStyle;rounded=0;orthogonalLoop=1;jettySize=auto;html=1;entryX=0.5;entryY=0;entryDx=0;entryDy=0;entryPerimeter=0;" edge="1" parent="1" source="1KTbV4AnDASRc_67AMs9-15" target="1KTbV4AnDASRc_67AMs9-16">
          <mxGeometry relative="1" as="geometry" />
        </mxCell>
      </root>
    </mxGraphModel>
  </diagram>
</mxfile>
